<svg width="38" height="38" viewBox="0 0 38 38" fill="none" xmlns="http://www.w3.org/2000/svg">
<path d="M37.2441 19.214C37.2441 9.02055 28.9376 0.71405 18.7441 0.71405C8.55064 0.714049 0.24414 9.02055 0.24414 19.214C0.244139 29.4075 8.55064 37.714 18.7441 37.714C28.9376 37.714 37.2441 29.4076 37.2441 19.214ZM17.7636 24.3755L11.2331 17.845C10.9556 17.5675 10.8261 17.216 10.8261 16.8645C10.8261 16.513 10.9556 16.1615 11.2331 15.884C11.7696 15.3475 12.6576 15.3475 13.1941 15.884L18.7441 21.434L24.2941 15.884C24.8306 15.3475 25.7186 15.3475 26.2551 15.884C26.7916 16.4205 26.7916 17.3086 26.2551 17.8451L19.7246 24.3755C19.1881 24.9305 18.3001 24.9305 17.7636 24.3755Z" fill="white"/>
</svg>
