<svg width="38" height="38" viewBox="0 0 38 38" fill="none" xmlns="http://www.w3.org/2000/svg">
<g clip-path="url(#clip0_72_566)">
<path fill-rule="evenodd" clip-rule="evenodd" d="M11.4517 17.2203L14.0435 9.26525H26.8725V1.50775H36.6873V37.1616H26.8725V31.2678H11.4517" fill="#E86A6A"/>
<mask id="path-2-inside-1_72_566" fill="white">
<path fill-rule="evenodd" clip-rule="evenodd" d="M2.57812 36.9465V1.6724H16.2156L20.1695 7.08592L20.4109 12.583L2.57812 25.9438"/>
</mask>
<path fill-rule="evenodd" clip-rule="evenodd" d="M2.57812 36.9465V1.6724H16.2156L20.1695 7.08592L20.4109 12.583L2.57812 25.9438" fill="#EAC300"/>
<path d="M2.57812 1.6724H0.477004V-0.428719H2.57812V1.6724ZM16.2156 1.6724V-0.428719H17.2829L17.9124 0.433136L16.2156 1.6724ZM20.1695 7.08592L21.8663 5.84665L22.2408 6.35942L22.2686 6.99377L20.1695 7.08592ZM20.4109 12.583L22.51 12.4909L22.5586 13.5993L21.6707 14.2645L20.4109 12.583ZM0.477004 36.9465V1.6724H4.67925V36.9465H0.477004ZM2.57812 -0.428719H16.2156V3.77353H2.57812V-0.428719ZM17.9124 0.433136L21.8663 5.84665L18.4728 8.32519L14.5189 2.91167L17.9124 0.433136ZM22.2686 6.99377L22.51 12.4909L18.3118 12.6752L18.0704 7.17807L22.2686 6.99377ZM21.6707 14.2645L3.83797 27.6253L1.31828 24.2623L19.151 10.9015L21.6707 14.2645Z" fill="white" mask="url(#path-2-inside-1_72_566)"/>
<mask id="path-4-inside-2_72_566" fill="white">
<path fill-rule="evenodd" clip-rule="evenodd" d="M2.5835 1.67203V36.9462L16.789 36.808L20.1749 31.5326L20.4162 26.0356L2.5835 11.9098"/>
</mask>
<path fill-rule="evenodd" clip-rule="evenodd" d="M2.5835 1.67203V36.9462L16.789 36.808L20.1749 31.5326L20.4162 26.0356L2.5835 11.9098" fill="#B589FF"/>
<path d="M2.5835 36.9462H0.482375V39.0678L2.60394 39.0472L2.5835 36.9462ZM16.789 36.808L16.8094 38.909L17.9442 38.8979L18.5572 37.9429L16.789 36.808ZM20.1749 31.5326L21.9431 32.6676L22.2492 32.1908L22.274 31.6248L20.1749 31.5326ZM20.4162 26.0356L22.5153 26.1277L22.5624 25.0552L21.7209 24.3885L20.4162 26.0356ZM0.482375 1.67203V36.9462H4.68462V1.67203H0.482375ZM2.60394 39.0472L16.8094 38.909L16.7686 34.7069L2.56306 34.8451L2.60394 39.0472ZM18.5572 37.9429L21.9431 32.6676L18.4067 30.3977L15.0208 35.673L18.5572 37.9429ZM22.274 31.6248L22.5153 26.1277L18.3171 25.9434L18.0758 31.4405L22.274 31.6248ZM21.7209 24.3885L3.88813 10.2628L1.27886 13.5568L19.1116 27.6826L21.7209 24.3885Z" fill="white" mask="url(#path-4-inside-2_72_566)"/>
</g>
<defs>
<clipPath id="clip0_72_566">
<rect width="36.7008" height="37.3113" fill="white" transform="translate(0.80127 0.65033)"/>
</clipPath>
</defs>
</svg>
