<svg width="1728" height="5456" viewBox="0 0 1728 5456" fill="none" xmlns="http://www.w3.org/2000/svg">
<rect x="-5.94336" y="1268.25" width="1746.11" height="10039.9" fill="#0D0D0D"/>
<path d="M215.101 1089.59C312.178 880.905 316.824 954.478 664.179 1047.54C1011.53 1140.6 652.521 923.044 652.521 923.044C652.521 923.044 291.027 535.275 626.083 640.703C961.139 746.13 948.441 610.518 948.441 610.518C948.441 610.518 690.335 105.421 898.48 76.9603C1106.62 48.4996 1568.06 689.3 1679.26 320.063C1790.46 -49.1729 1785.84 1458.32 1785.84 1458.32L-384.35 1441.75L-449.924 741.458C-476.362 459.117 118.024 1298.28 215.101 1089.59Z" fill="#0D0D0D"/>
</svg>
