<svg width="44" height="45" viewBox="0 0 44 45" fill="none" xmlns="http://www.w3.org/2000/svg">
<path d="M35.8759 3.96582H7.9106C5.49859 3.96582 3.54102 5.92339 3.54102 8.3354V36.3007C3.54102 38.7127 5.49859 40.6703 7.9106 40.6703H35.8759C38.2879 40.6703 40.2455 38.7127 40.2455 36.3007V8.3354C40.2455 5.92339 38.2879 3.96582 35.8759 3.96582ZM14.9019 17.9485V34.5529H9.65843V17.9485H14.9019ZM9.65843 13.1157C9.65843 11.8922 10.7071 10.9572 12.2802 10.9572C13.8532 10.9572 14.8408 11.8922 14.9019 13.1157C14.9019 14.3392 13.9231 15.3267 12.2802 15.3267C10.7071 15.3267 9.65843 14.3392 9.65843 13.1157ZM34.1281 34.5529H28.8846C28.8846 34.5529 28.8846 26.4604 28.8846 25.8137C28.8846 24.0659 28.0107 22.3181 25.8259 22.2831H25.756C23.6411 22.2831 22.7672 24.0834 22.7672 25.8137C22.7672 26.609 22.7672 34.5529 22.7672 34.5529H17.5237V17.9485H22.7672V20.1857C22.7672 20.1857 24.4538 17.9485 27.8446 17.9485C31.3141 17.9485 34.1281 20.3343 34.1281 25.167V34.5529Z" fill="#56E2FD"/>
</svg>
