<svg width="53" height="53" viewBox="0 0 53 53" fill="none" xmlns="http://www.w3.org/2000/svg">
<path d="M26.4292 0.131836C12.1032 0.131836 0.429199 11.8058 0.429199 26.1318C0.429199 40.4578 12.1032 52.1318 26.4292 52.1318C40.7552 52.1318 52.4292 40.4578 52.4292 26.1318C52.4292 11.8058 40.7552 0.131836 26.4292 0.131836ZM33.6832 27.5098L24.5052 36.6878C24.1152 37.0778 23.6212 37.2598 23.1272 37.2598C22.6332 37.2598 22.1392 37.0778 21.7492 36.6878C20.9952 35.9338 20.9952 34.6858 21.7492 33.9318L29.5492 26.1318L21.7492 18.3318C20.9952 17.5778 20.9952 16.3298 21.7492 15.5758C22.5032 14.8218 23.7512 14.8218 24.5052 15.5758L33.6832 24.7538C34.4632 25.5078 34.4632 26.7558 33.6832 27.5098Z" fill="#56E2FD"/>
</svg>
